<?xml version="1.0" ?><svg viewBox="0 0 512 512" xmlns="http://www.w3.org/2000/svg" fill="#8f95b9"><title/><g fill="#8f95b9" data-name="1" id="_1"><path fill="#8f95b9" d="M285.74,450H98.65A43.75,43.75,0,0,1,55,406.3V159.62a43.75,43.75,0,0,1,43.7-43.7h122.7A15,15,0,0,1,232,120.31L325,213.4a15,15,0,0,1,4.4,10.61V406.3A43.75,43.75,0,0,1,285.74,450ZM98.65,145.92A13.71,13.71,0,0,0,85,159.62V406.3A13.72,13.72,0,0,0,98.65,420H285.74a13.72,13.72,0,0,0,13.7-13.7V230.22l-84.3-84.3Z"/><path fill="#8f95b9" d="M352.74,383h-38.3a15,15,0,0,1,0-30h38.3a13.72,13.72,0,0,0,13.7-13.7V92.62a13.72,13.72,0,0,0-13.7-13.7H165.65A13.72,13.72,0,0,0,152,92.62v38.3a15,15,0,0,1-30,0V92.62a43.74,43.74,0,0,1,43.7-43.7H352.74a43.74,43.74,0,0,1,43.7,43.7V339.3A43.74,43.74,0,0,1,352.74,383Z"/><path d="M314.44,239H250.05a43.75,43.75,0,0,1-43.7-43.7V130.92a15,15,0,0,1,30,0v64.39a13.71,13.71,0,0,0,13.7,13.7h64.39a15,15,0,1,1,0,30Z"/></g></svg>