<svg width="145" height="147" viewBox="0 0 145 147" fill="none" xmlns="http://www.w3.org/2000/svg">
<path d="M128.716 118.071C96.6228 160.103 28.9302 144.916 7.2479 138.866C-1.27666 136.487 -2.43053 130.621 8.45686 128.014C83.2257 110.11 106.729 96.9712 108.591 89.4135C110.046 83.5075 98.2074 76.4333 91.4785 71.2956C87.3251 68.1243 87.125 65.2479 89.7855 62.8463C96.3747 56.8982 114.919 46.9622 125.715 42.984C135.556 39.3576 139.568 47.3367 141.096 51.5554C146.451 66.3352 146.793 94.3954 128.716 118.071ZM3.20881 95.0071C4.73731 99.2259 8.749 107.205 18.5901 103.579C29.3861 99.6004 47.9303 89.6643 54.5195 83.7163C57.18 81.3146 56.9799 78.4383 52.8265 75.267C46.0976 70.1293 34.2592 63.0551 35.7139 57.1491C37.5755 49.5913 61.0793 36.4528 135.848 18.5487C146.736 15.9415 145.582 10.0753 137.057 7.69668C115.375 1.64626 47.6823 -13.5409 15.589 28.4917C-2.48803 52.1671 -2.14614 80.2274 3.20881 95.0071Z" fill="url(#paint0_linear_1_86)"/>
<defs>
<linearGradient id="paint0_linear_1_86" x1="29" y1="-3.53327e-07" x2="120.5" y2="147" gradientUnits="userSpaceOnUse">
<stop offset="0.130208" stop-color="#5417FF"/>
<stop offset="0.911458" stop-color="#38D8FB"/>
</linearGradient>
</defs>
</svg>
